name Walk2.mot
datacolumns 19
datarows 30
range 1.65100000 1.68000000
endheader

                time	   L_ground_force_vx	   L_ground_force_vy	   L_ground_force_vz	   L_ground_force_px	   L_ground_force_py	   L_ground_force_pz	   R_ground_force_vx	   R_ground_force_vy	   R_ground_force_vz	   R_ground_force_px	   R_ground_force_py	   R_ground_force_pz	   L_ground_torque_x	   L_ground_torque_y	   L_ground_torque_z	   R_ground_torque_x	   R_ground_torque_y	   R_ground_torque_z	
          1.65100000	          0.00000000	          0.00000000	          0.00000000	          0.00000000	          0.00000000	          0.00000000	         14.27604671	        561.85352017	         37.96293828	         -0.35193695	          0.00000000	         -0.08461262	          0.00000000	          0.00000000	          0.00000000	          0.00000000	         -0.45203703	          0.00000000	
          1.65200000	          0.00000000	          0.00000000	          0.00000000	          0.00000000	          0.00000000	          0.00000000	         14.61007844	        563.04728564	         38.17657974	         -0.35171275	          0.00000000	         -0.08464664	          0.00000000	          0.00000000	          0.00000000	          0.00000000	         -0.44800858	          0.00000000	
          1.65300000	          0.00000000	          0.00000000	          0.00000000	          0.00000000	          0.00000000	          0.00000000	         14.93079284	        564.36456053	         38.38822296	         -0.35150019	          0.00000000	         -0.08471849	          0.00000000	          0.00000000	          0.00000000	          0.00000000	         -0.44503622	          0.00000000	
          1.65400000	          0.00000000	          0.00000000	          0.00000000	          0.00000000	          0.00000000	          0.00000000	         15.23802183	        565.73397523	         38.58834550	         -0.35129719	          0.00000000	         -0.08482857	          0.00000000	          0.00000000	          0.00000000	          0.00000000	         -0.44761877	          0.00000000	
          1.65500000	          0.00000000	          0.00000000	          0.00000000	          0.00000000	          0.00000000	          0.00000000	         15.53863558	        567.10051367	         38.78128316	         -0.35108142	          0.00000000	         -0.08493262	          0.00000000	          0.00000000	          0.00000000	          0.00000000	         -0.45808327	          0.00000000	
          1.65600000	          0.00000000	          0.00000000	          0.00000000	          0.00000000	          0.00000000	          0.00000000	         15.83980780	        568.44680551	         38.97870679	         -0.35084029	          0.00000000	         -0.08497759	          0.00000000	          0.00000000	          0.00000000	          0.00000000	         -0.47371505	          0.00000000	
          1.65700000	          0.00000000	          0.00000000	          0.00000000	          0.00000000	          0.00000000	          0.00000000	         16.15158147	        569.78371796	         39.18699180	         -0.35058925	          0.00000000	         -0.08495435	          0.00000000	          0.00000000	          0.00000000	          0.00000000	         -0.48803431	          0.00000000	
          1.65800000	          0.00000000	          0.00000000	          0.00000000	          0.00000000	          0.00000000	          0.00000000	         16.48817636	        571.11849870	         39.40278531	         -0.35035275	          0.00000000	         -0.08488807	          0.00000000	          0.00000000	          0.00000000	          0.00000000	         -0.49567249	          0.00000000	
          1.65900000	          0.00000000	          0.00000000	          0.00000000	          0.00000000	          0.00000000	          0.00000000	         16.85799149	        572.43622100	         39.61648589	         -0.35014410	          0.00000000	         -0.08480593	          0.00000000	          0.00000000	          0.00000000	          0.00000000	         -0.49507220	          0.00000000	
          1.66000000	          0.00000000	          0.00000000	          0.00000000	          0.00000000	          0.00000000	          0.00000000	         17.25745015	        573.69750284	         39.81898667	         -0.34997030	          0.00000000	         -0.08473784	          0.00000000	          0.00000000	          0.00000000	          0.00000000	         -0.48748118	          0.00000000	
          1.66100000	          0.00000000	          0.00000000	          0.00000000	          0.00000000	          0.00000000	          0.00000000	         17.67409608	        574.84487665	         40.00605273	         -0.34983907	          0.00000000	         -0.08472038	          0.00000000	          0.00000000	          0.00000000	          0.00000000	         -0.47708600	          0.00000000	
          1.66200000	          0.00000000	          0.00000000	          0.00000000	          0.00000000	          0.00000000	          0.00000000	         18.09385825	        575.84772402	         40.17796493	         -0.34974301	          0.00000000	         -0.08478624	          0.00000000	          0.00000000	          0.00000000	          0.00000000	         -0.47071832	          0.00000000	
          1.66300000	          0.00000000	          0.00000000	          0.00000000	          0.00000000	          0.00000000	          0.00000000	         18.50860045	        576.73965979	         40.34014196	         -0.34964022	          0.00000000	         -0.08494128	          0.00000000	          0.00000000	          0.00000000	          0.00000000	         -0.47226859	          0.00000000	
          1.66400000	          0.00000000	          0.00000000	          0.00000000	          0.00000000	          0.00000000	          0.00000000	         18.91806426	        577.59033789	         40.50239409	         -0.34947017	          0.00000000	         -0.08514593	          0.00000000	          0.00000000	          0.00000000	          0.00000000	         -0.47778264	          0.00000000	
          1.66500000	          0.00000000	          0.00000000	          0.00000000	          0.00000000	          0.00000000	          0.00000000	         19.32882936	        578.47882525	         40.67322751	         -0.34920315	          0.00000000	         -0.08532628	          0.00000000	          0.00000000	          0.00000000	          0.00000000	         -0.47988332	          0.00000000	
          1.66600000	          0.00000000	          0.00000000	          0.00000000	          0.00000000	          0.00000000	          0.00000000	         19.75178822	        579.49695253	         40.85694155	         -0.34886997	          0.00000000	         -0.08541498	          0.00000000	          0.00000000	          0.00000000	          0.00000000	         -0.47673047	          0.00000000	
          1.66700000	          0.00000000	          0.00000000	          0.00000000	          0.00000000	          0.00000000	          0.00000000	         20.19629102	        580.71611259	         41.04958317	         -0.34854170	          0.00000000	         -0.08540262	          0.00000000	          0.00000000	          0.00000000	          0.00000000	         -0.47327312	          0.00000000	
          1.66800000	          0.00000000	          0.00000000	          0.00000000	          0.00000000	          0.00000000	          0.00000000	         20.66499609	        582.13822482	         41.23559992	         -0.34828544	          0.00000000	         -0.08534402	          0.00000000	          0.00000000	          0.00000000	          0.00000000	         -0.47536861	          0.00000000	
          1.66900000	          0.00000000	          0.00000000	          0.00000000	          0.00000000	          0.00000000	          0.00000000	         21.15367130	        583.70451682	         41.40053645	         -0.34812658	          0.00000000	         -0.08529970	          0.00000000	          0.00000000	          0.00000000	          0.00000000	         -0.48487773	          0.00000000	
          1.67000000	          0.00000000	          0.00000000	          0.00000000	          0.00000000	          0.00000000	          0.00000000	         21.65549488	        585.34532548	         41.54659681	         -0.34803986	          0.00000000	         -0.08527886	          0.00000000	          0.00000000	          0.00000000	          0.00000000	         -0.49858685	          0.00000000	
          1.67100000	          0.00000000	          0.00000000	          0.00000000	          0.00000000	          0.00000000	          0.00000000	         22.16160920	        587.01850295	         41.69386027	         -0.34797435	          0.00000000	         -0.08524449	          0.00000000	          0.00000000	          0.00000000	          0.00000000	         -0.51158933	          0.00000000	
          1.67200000	          0.00000000	          0.00000000	          0.00000000	          0.00000000	          0.00000000	          0.00000000	         22.65998865	        588.71569582	         41.87069151	         -0.34788259	          0.00000000	         -0.08517525	          0.00000000	          0.00000000	          0.00000000	          0.00000000	         -0.52115256	          0.00000000	
          1.67300000	          0.00000000	          0.00000000	          0.00000000	          0.00000000	          0.00000000	          0.00000000	         23.14335058	        590.43814771	         42.09378916	         -0.34773353	          0.00000000	         -0.08510093	          0.00000000	          0.00000000	          0.00000000	          0.00000000	         -0.52759441	          0.00000000	
          1.67400000	          0.00000000	          0.00000000	          0.00000000	          0.00000000	          0.00000000	          0.00000000	         23.61393194	        592.17439276	         42.35077619	         -0.34752212	          0.00000000	         -0.08505595	          0.00000000	          0.00000000	          0.00000000	          0.00000000	         -0.53308459	          0.00000000	
          1.67500000	          0.00000000	          0.00000000	          0.00000000	          0.00000000	          0.00000000	          0.00000000	         24.07466094	        593.89988990	         42.60769360	         -0.34727303	          0.00000000	         -0.08502963	          0.00000000	          0.00000000	          0.00000000	          0.00000000	         -0.53967896	          0.00000000	
          1.67600000	          0.00000000	          0.00000000	          0.00000000	          0.00000000	          0.00000000	          0.00000000	         24.52342846	        595.57886320	         42.83350086	         -0.34702421	          0.00000000	         -0.08499296	          0.00000000	          0.00000000	          0.00000000	          0.00000000	         -0.54896432	          0.00000000	
          1.67700000	          0.00000000	          0.00000000	          0.00000000	          0.00000000	          0.00000000	          0.00000000	         24.96178184	        597.17686967	         43.01536096	         -0.34680160	          0.00000000	         -0.08495598	          0.00000000	          0.00000000	          0.00000000	          0.00000000	         -0.56196364	          0.00000000	
          1.67800000	          0.00000000	          0.00000000	          0.00000000	          0.00000000	          0.00000000	          0.00000000	         25.40087233	        598.70062672	         43.15941764	         -0.34660485	          0.00000000	         -0.08496821	          0.00000000	          0.00000000	          0.00000000	          0.00000000	         -0.57694188	          0.00000000	
          1.67900000	          0.00000000	          0.00000000	          0.00000000	          0.00000000	          0.00000000	          0.00000000	         25.84935147	        600.22147574	         43.28598811	         -0.34641391	          0.00000000	         -0.08506327	          0.00000000	          0.00000000	          0.00000000	          0.00000000	         -0.58854003	          0.00000000	
          1.68000000	          0.00000000	          0.00000000	          0.00000000	          0.00000000	          0.00000000	          0.00000000	         26.30181114	        601.83652481	         43.41985711	         -0.34620804	          0.00000000	         -0.08522015	          0.00000000	          0.00000000	          0.00000000	          0.00000000	         -0.59076442	          0.00000000	
